<svg id="visual" viewBox="0 0 900 600" width="900" height="600" xmlns="http://www.w3.org/2000/svg" xmlns:xlink="http://www.w3.org/1999/xlink" version="1.1"><path d="M0 97L13.7 105C27.3 113 54.7 129 82 123C109.3 117 136.7 89 163.8 80C191 71 218 81 245.2 95C272.3 109 299.7 127 327 131C354.3 135 381.7 125 409 122C436.3 119 463.7 123 491 113C518.3 103 545.7 79 573 82C600.3 85 627.7 115 654.8 123C682 131 709 117 736.2 114C763.3 111 790.7 119 818 125C845.3 131 872.7 135 886.3 137L900 139L900 0L886.3 0C872.7 0 845.3 0 818 0C790.7 0 763.3 0 736.2 0C709 0 682 0 654.8 0C627.7 0 600.3 0 573 0C545.7 0 518.3 0 491 0C463.7 0 436.3 0 409 0C381.7 0 354.3 0 327 0C299.7 0 272.3 0 245.2 0C218 0 191 0 163.8 0C136.7 0 109.3 0 82 0C54.7 0 27.3 0 13.7 0L0 0Z" fill="#6198ff"></path><path d="M0 205L13.7 212C27.3 219 54.7 233 82 226C109.3 219 136.7 191 163.8 177C191 163 218 163 245.2 179C272.3 195 299.7 227 327 228C354.3 229 381.7 199 409 196C436.3 193 463.7 217 491 210C518.3 203 545.7 165 573 170C600.3 175 627.7 223 654.8 234C682 245 709 219 736.2 207C763.3 195 790.7 197 818 199C845.3 201 872.7 203 886.3 204L900 205L900 137L886.3 135C872.7 133 845.3 129 818 123C790.7 117 763.3 109 736.2 112C709 115 682 129 654.8 121C627.7 113 600.3 83 573 80C545.7 77 518.3 101 491 111C463.7 121 436.3 117 409 120C381.7 123 354.3 133 327 129C299.7 125 272.3 107 245.2 93C218 79 191 69 163.8 78C136.7 87 109.3 115 82 121C54.7 127 27.3 111 13.7 103L0 95Z" fill="#3c80ff"></path><path d="M0 307L13.7 303C27.3 299 54.7 291 82 275C109.3 259 136.7 235 163.8 227C191 219 218 227 245.2 246C272.3 265 299.7 295 327 293C354.3 291 381.7 257 409 250C436.3 243 463.7 263 491 259C518.3 255 545.7 227 573 231C600.3 235 627.7 271 654.8 287C682 303 709 299 736.2 297C763.3 295 790.7 295 818 297C845.3 299 872.7 303 886.3 305L900 307L900 203L886.3 202C872.7 201 845.3 199 818 197C790.7 195 763.3 193 736.2 205C709 217 682 243 654.8 232C627.7 221 600.3 173 573 168C545.7 163 518.3 201 491 208C463.7 215 436.3 191 409 194C381.7 197 354.3 227 327 226C299.7 225 272.3 193 245.2 177C218 161 191 161 163.8 175C136.7 189 109.3 217 82 224C54.7 231 27.3 217 13.7 210L0 203Z" fill="#0066ff"></path><path d="M0 493L13.7 480C27.3 467 54.7 441 82 435C109.3 429 136.7 443 163.8 432C191 421 218 385 245.2 391C272.3 397 299.7 445 327 452C354.3 459 381.7 425 409 419C436.3 413 463.7 435 491 447C518.3 459 545.7 461 573 454C600.3 447 627.7 431 654.8 440C682 449 709 483 736.2 482C763.3 481 790.7 445 818 437C845.3 429 872.7 449 886.3 459L900 469L900 305L886.3 303C872.7 301 845.3 297 818 295C790.7 293 763.3 293 736.2 295C709 297 682 301 654.8 285C627.7 269 600.3 233 573 229C545.7 225 518.3 253 491 257C463.7 261 436.3 241 409 248C381.7 255 354.3 289 327 291C299.7 293 272.3 263 245.2 244C218 225 191 217 163.8 225C136.7 233 109.3 257 82 273C54.7 289 27.3 297 13.7 301L0 305Z" fill="#0059dd"></path><path d="M0 601L13.7 601C27.3 601 54.7 601 82 601C109.3 601 136.7 601 163.8 601C191 601 218 601 245.2 601C272.3 601 299.7 601 327 601C354.3 601 381.7 601 409 601C436.3 601 463.7 601 491 601C518.3 601 545.7 601 573 601C600.3 601 627.7 601 654.8 601C682 601 709 601 736.2 601C763.3 601 790.7 601 818 601C845.3 601 872.7 601 886.3 601L900 601L900 467L886.3 457C872.7 447 845.3 427 818 435C790.7 443 763.3 479 736.2 480C709 481 682 447 654.8 438C627.7 429 600.3 445 573 452C545.7 459 518.3 457 491 445C463.7 433 436.3 411 409 417C381.7 423 354.3 457 327 450C299.7 443 272.3 395 245.2 389C218 383 191 419 163.8 430C136.7 441 109.3 427 82 433C54.7 439 27.3 465 13.7 478L0 491Z" fill="#004cbb"></path></svg>