<svg id="visual" viewBox="0 0 900 600" width="900" height="600" xmlns="http://www.w3.org/2000/svg" xmlns:xlink="http://www.w3.org/1999/xlink" version="1.1"><rect x="0" y="0" width="900" height="600" fill="#86f3eb"></rect><g fill="none" stroke="#2334a6" stroke-width="2"><circle r="12" cx="687" cy="249"></circle><circle r="-1" cx="369" cy="584"></circle><circle r="-2" cx="177" cy="173"></circle><circle r="8" cx="466" cy="239"></circle><circle r="-1" cx="755" cy="3"></circle><circle r="7" cx="348" cy="5"></circle><circle r="10" cx="57" cy="99"></circle><circle r="9" cx="76" cy="400"></circle><circle r="1" cx="252" cy="537"></circle><circle r="0" cx="229" cy="191"></circle><circle r="3" cx="27" cy="48"></circle><circle r="-2" cx="828" cy="165"></circle><circle r="7" cx="477" cy="435"></circle><circle r="1" cx="565" cy="443"></circle><circle r="9" cx="314" cy="360"></circle><circle r="-2" cx="720" cy="101"></circle><circle r="-1" cx="828" cy="493"></circle><circle r="9" cx="143" cy="113"></circle><circle r="6" cx="786" cy="52"></circle><circle r="7" cx="821" cy="1"></circle><circle r="6" cx="619" cy="336"></circle><circle r="-2" cx="724" cy="500"></circle><circle r="8" cx="766" cy="385"></circle><circle r="1" cx="506" cy="294"></circle><circle r="-2" cx="853" cy="470"></circle><circle r="8" cx="58" cy="343"></circle><circle r="3" cx="512" cy="97"></circle><circle r="2" cx="423" cy="501"></circle><circle r="1" cx="437" cy="158"></circle><circle r="5" cx="808" cy="100"></circle><circle r="9" cx="78" cy="296"></circle><circle r="-2" cx="429" cy="282"></circle><circle r="8" cx="398" cy="131"></circle><circle r="0" cx="313" cy="418"></circle><circle r="0" cx="232" cy="84"></circle><circle r="7" cx="588" cy="98"></circle><circle r="7" cx="641" cy="74"></circle><circle r="4" cx="84" cy="207"></circle><circle r="1" cx="224" cy="483"></circle><circle r="2" cx="222" cy="434"></circle><circle r="9" cx="697" cy="163"></circle><circle r="9" cx="461" cy="413"></circle><circle r="8" cx="658" cy="551"></circle><circle r="9" cx="688" cy="77"></circle><circle r="2" cx="774" cy="580"></circle><circle r="4" cx="117" cy="504"></circle><circle r="5" cx="108" cy="389"></circle><circle r="2" cx="331" cy="103"></circle><circle r="7" cx="323" cy="303"></circle><circle r="8" cx="148" cy="29"></circle><circle r="-1" cx="8" cy="289"></circle><circle r="-1" cx="306" cy="587"></circle><circle r="9" cx="223" cy="583"></circle><circle r="8" cx="729" cy="229"></circle><circle r="6" cx="420" cy="91"></circle><circle r="1" cx="474" cy="73"></circle><circle r="10" cx="733" cy="526"></circle><circle r="2" cx="722" cy="13"></circle><circle r="7" cx="13" cy="340"></circle><circle r="1" cx="550" cy="181"></circle><circle r="4" cx="431" cy="313"></circle><circle r="9" cx="120" cy="540"></circle><circle r="7" cx="448" cy="491"></circle><circle r="-2" cx="199" cy="42"></circle><circle r="6" cx="647" cy="125"></circle><circle r="0" cx="548" cy="91"></circle><circle r="-1" cx="195" cy="78"></circle><circle r="-1" cx="512" cy="18"></circle><circle r="8" cx="265" cy="339"></circle><circle r="5" cx="336" cy="178"></circle><circle r="10" cx="857" cy="51"></circle><circle r="9" cx="696" cy="586"></circle><circle r="7" cx="848" cy="282"></circle><circle r="10" cx="272" cy="407"></circle><circle r="2" cx="890" cy="373"></circle><circle r="0" cx="827" cy="131"></circle><circle r="0" cx="288" cy="202"></circle><circle r="-2" cx="103" cy="238"></circle><circle r="7" cx="233" cy="323"></circle><circle r="1" cx="343" cy="502"></circle><circle r="-2" cx="577" cy="543"></circle><circle r="9" cx="302" cy="479"></circle><circle r="10" cx="852" cy="364"></circle><circle r="4" cx="738" cy="449"></circle><circle r="9" cx="88" cy="266"></circle><circle r="-2" cx="181" cy="309"></circle><circle r="10" cx="604" cy="174"></circle><circle r="-2" cx="898" cy="84"></circle><circle r="4" cx="513" cy="497"></circle><circle r="9" cx="98" cy="584"></circle><circle r="7" cx="372" cy="114"></circle><circle r="4" cx="622" cy="143"></circle><circle r="4" cx="165" cy="532"></circle><circle r="1" cx="626" cy="42"></circle><circle r="4" cx="593" cy="336"></circle><circle r="9" cx="462" cy="349"></circle><circle r="7" cx="605" cy="273"></circle><circle r="-2" cx="479" cy="510"></circle><circle r="5" cx="686" cy="530"></circle><circle r="6" cx="821" cy="201"></circle><circle r="8" cx="425" cy="551"></circle><circle r="9" cx="801" cy="169"></circle><circle r="8" cx="339" cy="207"></circle><circle r="4" cx="731" cy="363"></circle><circle r="2" cx="829" cy="416"></circle><circle r="6" cx="527" cy="212"></circle><circle r="4" cx="372" cy="415"></circle><circle r="0" cx="581" cy="154"></circle><circle r="4" cx="627" cy="563"></circle><circle r="10" cx="44" cy="162"></circle><circle r="0" cx="767" cy="287"></circle><circle r="7" cx="5" cy="518"></circle><circle r="9" cx="259" cy="79"></circle><circle r="4" cx="858" cy="178"></circle><circle r="2" cx="749" cy="483"></circle><circle r="-1" cx="390" cy="33"></circle><circle r="-2" cx="788" cy="205"></circle><circle r="-2" cx="886" cy="214"></circle><circle r="6" cx="88" cy="130"></circle><circle r="-1" cx="37" cy="264"></circle><circle r="9" cx="530" cy="376"></circle><circle r="4" cx="784" cy="88"></circle><circle r="2" cx="331" cy="396"></circle><circle r="5" cx="208" cy="296"></circle><circle r="5" cx="173" cy="63"></circle><circle r="9" cx="780" cy="24"></circle><circle r="-2" cx="714" cy="68"></circle><circle r="1" cx="158" cy="265"></circle><circle r="4" cx="818" cy="301"></circle><circle r="4" cx="399" cy="428"></circle><circle r="1" cx="675" cy="411"></circle><circle r="0" cx="724" cy="391"></circle><circle r="2" cx="272" cy="229"></circle><circle r="0" cx="624" cy="420"></circle><circle r="-2" cx="682" cy="185"></circle><circle r="0" cx="775" cy="245"></circle><circle r="-2" cx="290" cy="52"></circle><circle r="9" cx="811" cy="69"></circle><circle r="7" cx="20" cy="126"></circle><circle r="1" cx="778" cy="347"></circle><circle r="10" cx="446" cy="579"></circle><circle r="7" cx="354" cy="326"></circle><circle r="10" cx="455" cy="97"></circle><circle r="6" cx="558" cy="280"></circle><circle r="2" cx="315" cy="137"></circle><circle r="10" cx="280" cy="549"></circle><circle r="7" cx="345" cy="467"></circle><circle r="3" cx="511" cy="266"></circle><circle r="7" cx="396" cy="207"></circle><circle r="-2" cx="230" cy="226"></circle><circle r="1" cx="442" cy="390"></circle><circle r="0" cx="648" cy="300"></circle><circle r="1" cx="272" cy="171"></circle><circle r="3" cx="586" cy="200"></circle><circle r="0" cx="737" cy="562"></circle><circle r="1" cx="444" cy="72"></circle><circle r="5" cx="899" cy="347"></circle><circle r="2" cx="678" cy="439"></circle><circle r="-2" cx="290" cy="291"></circle><circle r="0" cx="277" cy="500"></circle><circle r="1" cx="324" cy="74"></circle><circle r="8" cx="429" cy="49"></circle><circle r="8" cx="367" cy="441"></circle><circle r="8" cx="243" cy="291"></circle><circle r="6" cx="309" cy="227"></circle><circle r="9" cx="108" cy="294"></circle><circle r="7" cx="213" cy="352"></circle><circle r="-1" cx="65" cy="519"></circle><circle r="8" cx="462" cy="555"></circle><circle r="-2" cx="502" cy="591"></circle><circle r="7" cx="548" cy="8"></circle><circle r="1" cx="181" cy="136"></circle><circle r="10" cx="194" cy="383"></circle><circle r="8" cx="606" cy="5"></circle><circle r="9" cx="137" cy="283"></circle><circle r="3" cx="884" cy="595"></circle><circle r="6" cx="803" cy="338"></circle><circle r="9" cx="490" cy="163"></circle><circle r="5" cx="498" cy="133"></circle><circle r="4" cx="801" cy="537"></circle><circle r="8" cx="390" cy="344"></circle><circle r="5" cx="482" cy="202"></circle><circle r="10" cx="266" cy="435"></circle><circle r="4" cx="664" cy="16"></circle><circle r="9" cx="735" cy="46"></circle><circle r="5" cx="80" cy="462"></circle><circle r="-1" cx="131" cy="186"></circle><circle r="3" cx="596" cy="563"></circle><circle r="8" cx="806" cy="257"></circle><circle r="6" cx="826" cy="450"></circle><circle r="6" cx="537" cy="120"></circle><circle r="10" cx="559" cy="353"></circle><circle r="4" cx="56" cy="227"></circle><circle r="-1" cx="242" cy="121"></circle><circle r="3" cx="346" cy="559"></circle><circle r="1" cx="255" cy="36"></circle><circle r="3" cx="695" cy="28"></circle><circle r="-2" cx="396" cy="474"></circle><circle r="0" cx="767" cy="508"></circle><circle r="9" cx="793" cy="502"></circle><circle r="1" cx="402" cy="382"></circle><circle r="7" cx="399" cy="583"></circle><circle r="10" cx="193" cy="256"></circle><circle r="3" cx="150" cy="346"></circle><circle r="0" cx="90" cy="20"></circle><circle r="0" cx="181" cy="447"></circle><circle r="1" cx="633" cy="486"></circle><circle r="10" cx="596" cy="235"></circle><circle r="9" cx="80" cy="45"></circle><circle r="5" cx="461" cy="177"></circle><circle r="-1" cx="370" cy="528"></circle><circle r="-2" cx="741" cy="137"></circle><circle r="8" cx="15" cy="470"></circle><circle r="0" cx="435" cy="231"></circle><circle r="7" cx="196" cy="221"></circle><circle r="-1" cx="238" cy="511"></circle><circle r="1" cx="3" cy="242"></circle><circle r="10" cx="897" cy="542"></circle><circle r="10" cx="135" cy="310"></circle><circle r="4" cx="95" cy="357"></circle><circle r="2" cx="633" cy="202"></circle><circle r="-2" cx="517" cy="328"></circle><circle r="1" cx="164" cy="218"></circle><circle r="-2" cx="898" cy="492"></circle><circle r="3" cx="840" cy="236"></circle><circle r="5" cx="512" cy="437"></circle><circle r="10" cx="471" cy="473"></circle><circle r="2" cx="736" cy="166"></circle><circle r="7" cx="599" cy="68"></circle><circle r="2" cx="407" cy="298"></circle><circle r="-1" cx="190" cy="482"></circle><circle r="8" cx="880" cy="569"></circle><circle r="5" cx="285" cy="378"></circle><circle r="5" cx="473" cy="3"></circle><circle r="1" cx="425" cy="415"></circle><circle r="3" cx="669" cy="488"></circle><circle r="8" cx="716" cy="334"></circle><circle r="2" cx="173" cy="420"></circle><circle r="8" cx="60" cy="573"></circle><circle r="1" cx="594" cy="429"></circle><circle r="1" cx="396" cy="103"></circle><circle r="9" cx="426" cy="365"></circle><circle r="8" cx="690" cy="289"></circle><circle r="4" cx="119" cy="37"></circle><circle r="5" cx="688" cy="355"></circle><circle r="8" cx="361" cy="380"></circle><circle r="4" cx="671" cy="228"></circle><circle r="5" cx="494" cy="230"></circle><circle r="-1" cx="570" cy="49"></circle><circle r="0" cx="163" cy="468"></circle><circle r="10" cx="43" cy="487"></circle><circle r="8" cx="271" cy="269"></circle><circle r="3" cx="311" cy="548"></circle><circle r="10" cx="525" cy="58"></circle><circle r="7" cx="281" cy="580"></circle><circle r="8" cx="615" cy="453"></circle><circle r="1" cx="183" cy="349"></circle><circle r="4" cx="26" cy="214"></circle><circle r="-2" cx="34" cy="408"></circle><circle r="7" cx="699" cy="463"></circle><circle r="3" cx="533" cy="547"></circle><circle r="10" cx="307" cy="24"></circle><circle r="-2" cx="830" cy="379"></circle><circle r="2" cx="157" cy="579"></circle><circle r="3" cx="28" cy="433"></circle><circle r="4" cx="857" cy="124"></circle><circle r="4" cx="491" cy="567"></circle><circle r="7" cx="480" cy="44"></circle><circle r="-2" cx="356" cy="271"></circle><circle r="7" cx="895" cy="441"></circle><circle r="2" cx="191" cy="548"></circle><circle r="10" cx="570" cy="593"></circle><circle r="7" cx="264" cy="4"></circle><circle r="10" cx="565" cy="312"></circle><circle r="9" cx="574" cy="491"></circle><circle r="1" cx="542" cy="520"></circle><circle r="8" cx="13" cy="11"></circle><circle r="7" cx="422" cy="119"></circle><circle r="9" cx="446" cy="6"></circle><circle r="10" cx="609" cy="388"></circle><circle r="-1" cx="397" cy="234"></circle><circle r="2" cx="758" cy="181"></circle><circle r="6" cx="889" cy="39"></circle><circle r="2" cx="333" cy="43"></circle><circle r="5" cx="344" cy="596"></circle><circle r="0" cx="27" cy="378"></circle><circle r="7" cx="852" cy="78"></circle><circle r="9" cx="71" cy="158"></circle><circle r="-1" cx="812" cy="575"></circle><circle r="4" cx="885" cy="405"></circle><circle r="0" cx="243" cy="455"></circle><circle r="-1" cx="897" cy="149"></circle><circle r="2" cx="132" cy="415"></circle><circle r="1" cx="535" cy="249"></circle><circle r="2" cx="863" cy="323"></circle><circle r="4" cx="829" cy="554"></circle><circle r="6" cx="579" cy="386"></circle><circle r="5" cx="754" cy="321"></circle><circle r="0" cx="100" cy="97"></circle><circle r="-2" cx="638" cy="364"></circle><circle r="3" cx="521" cy="410"></circle><circle r="7" cx="8" cy="566"></circle><circle r="6" cx="647" cy="333"></circle><circle r="2" cx="122" cy="337"></circle><circle r="7" cx="559" cy="416"></circle><circle r="5" cx="551" cy="571"></circle><circle r="7" cx="143" cy="379"></circle><circle r="8" cx="443" cy="441"></circle><circle r="4" cx="453" cy="209"></circle><circle r="4" cx="670" cy="381"></circle><circle r="0" cx="132" cy="69"></circle><circle r="6" cx="195" cy="592"></circle><circle r="0" cx="579" cy="255"></circle><circle r="-1" cx="229" cy="385"></circle><circle r="4" cx="362" cy="160"></circle><circle r="0" cx="330" cy="259"></circle><circle r="0" cx="132" cy="441"></circle><circle r="-2" cx="299" cy="114"></circle><circle r="10" cx="4" cy="422"></circle><circle r="-1" cx="176" cy="20"></circle><circle r="7" cx="650" cy="463"></circle><circle r="5" cx="628" cy="243"></circle><circle r="7" cx="715" cy="300"></circle><circle r="1" cx="565" cy="220"></circle><circle r="3" cx="472" cy="119"></circle><circle r="7" cx="478" cy="272"></circle><circle r="2" cx="830" cy="598"></circle><circle r="4" cx="658" cy="584"></circle><circle r="9" cx="357" cy="353"></circle><circle r="0" cx="652" cy="269"></circle><circle r="10" cx="48" cy="544"></circle><circle r="6" cx="53" cy="29"></circle><circle r="-1" cx="30" cy="100"></circle><circle r="5" cx="692" cy="124"></circle><circle r="7" cx="782" cy="434"></circle><circle r="3" cx="860" cy="5"></circle><circle r="8" cx="251" cy="370"></circle><circle r="10" cx="872" cy="270"></circle><circle r="0" cx="757" cy="542"></circle><circle r="2" cx="506" cy="355"></circle><circle r="2" cx="43" cy="316"></circle><circle r="-2" cx="894" cy="114"></circle><circle r="1" cx="695" cy="498"></circle><circle r="-1" cx="290" cy="325"></circle><circle r="-2" cx="656" cy="48"></circle><circle r="3" cx="669" cy="158"></circle><circle r="10" cx="51" cy="461"></circle><circle r="4" cx="471" cy="314"></circle><circle r="8" cx="388" cy="507"></circle><circle r="7" cx="770" cy="151"></circle><circle r="-2" cx="518" cy="466"></circle><circle r="8" cx="895" cy="187"></circle><circle r="3" cx="503" cy="536"></circle><circle r="2" cx="75" cy="78"></circle><circle r="8" cx="148" cy="240"></circle><circle r="-2" cx="898" cy="245"></circle><circle r="-1" cx="129" cy="474"></circle><circle r="6" cx="285" cy="144"></circle><circle r="2" cx="54" cy="127"></circle><circle r="0" cx="744" cy="265"></circle><circle r="8" cx="191" cy="513"></circle><circle r="1" cx="768" cy="120"></circle><circle r="-2" cx="709" cy="431"></circle><circle r="5" cx="71" cy="597"></circle><circle r="8" cx="416" cy="451"></circle><circle r="9" cx="777" cy="476"></circle><circle r="0" cx="862" cy="437"></circle><circle r="2" cx="745" cy="411"></circle><circle r="4" cx="748" cy="90"></circle><circle r="0" cx="8" cy="151"></circle><circle r="5" cx="126" cy="582"></circle><circle r="3" cx="856" cy="583"></circle><circle r="4" cx="872" cy="97"></circle><circle r="0" cx="476" cy="386"></circle><circle r="1" cx="740" cy="590"></circle><circle r="-2" cx="629" cy="517"></circle><circle r="7" cx="591" cy="125"></circle><circle r="10" cx="855" cy="513"></circle><circle r="-1" cx="350" cy="66"></circle><circle r="-1" cx="23" cy="183"></circle><circle r="7" cx="305" cy="165"></circle><circle r="0" cx="856" cy="396"></circle><circle r="-2" cx="731" cy="199"></circle><circle r="8" cx="391" cy="69"></circle><circle r="-2" cx="651" cy="181"></circle><circle r="2" cx="54" cy="430"></circle><circle r="2" cx="375" cy="1"></circle><circle r="1" cx="89" cy="553"></circle><circle r="-2" cx="368" cy="227"></circle><circle r="0" cx="807" cy="391"></circle><circle r="8" cx="674" cy="105"></circle><circle r="1" cx="26" cy="597"></circle><circle r="0" cx="395" cy="555"></circle><circle r="5" cx="86" cy="433"></circle><circle r="-1" cx="545" cy="151"></circle><circle r="-1" cx="468" cy="148"></circle><circle r="6" cx="860" cy="215"></circle><circle r="9" cx="85" cy="332"></circle><circle r="7" cx="224" cy="555"></circle><circle r="6" cx="390" cy="166"></circle><circle r="-1" cx="681" cy="329"></circle><circle r="10" cx="830" cy="326"></circle><circle r="10" cx="228" cy="151"></circle><circle r="-1" cx="232" cy="260"></circle><circle r="10" cx="699" cy="557"></circle><circle r="4" cx="451" cy="520"></circle><circle r="2" cx="69" cy="490"></circle><circle r="7" cx="64" cy="186"></circle><circle r="0" cx="183" cy="106"></circle><circle r="7" cx="824" cy="46"></circle><circle r="1" cx="594" cy="299"></circle><circle r="2" cx="216" cy="1"></circle><circle r="10" cx="414" cy="259"></circle><circle r="9" cx="623" cy="100"></circle><circle r="0" cx="411" cy="2"></circle><circle r="-1" cx="793" cy="283"></circle><circle r="4" cx="637" cy="2"></circle><circle r="9" cx="165" cy="498"></circle><circle r="10" cx="783" cy="407"></circle><circle r="3" cx="696" cy="217"></circle><circle r="4" cx="340" cy="428"></circle><circle r="6" cx="797" cy="135"></circle><circle r="6" cx="882" cy="296"></circle><circle r="1" cx="306" cy="519"></circle><circle r="10" cx="318" cy="334"></circle><circle r="2" cx="140" cy="4"></circle><circle r="10" cx="386" cy="276"></circle><circle r="5" cx="91" cy="176"></circle><circle r="2" cx="610" cy="541"></circle><circle r="7" cx="582" cy="16"></circle><circle r="6" cx="209" cy="120"></circle><circle r="8" cx="249" cy="573"></circle><circle r="3" cx="374" cy="307"></circle><circle r="5" cx="113" cy="161"></circle><circle r="2" cx="520" cy="184"></circle><circle r="2" cx="277" cy="468"></circle><circle r="0" cx="760" cy="58"></circle><circle r="9" cx="44" cy="72"></circle><circle r="9" cx="547" cy="478"></circle><circle r="3" cx="863" cy="542"></circle><circle r="-1" cx="244" cy="412"></circle><circle r="6" cx="600" cy="494"></circle><circle r="3" cx="10" cy="69"></circle><circle r="-1" cx="605" cy="593"></circle><circle r="4" cx="258" cy="598"></circle><circle r="7" cx="431" cy="192"></circle><circle r="1" cx="805" cy="465"></circle><circle r="5" cx="409" cy="529"></circle><circle r="1" cx="445" cy="133"></circle><circle r="6" cx="362" cy="190"></circle><circle r="3" cx="268" cy="117"></circle><circle r="6" cx="206" cy="169"></circle><circle r="7" cx="126" cy="257"></circle><circle r="5" cx="895" cy="7"></circle><circle r="-1" cx="295" cy="252"></circle><circle r="-1" cx="363" cy="30"></circle><circle r="5" cx="343" cy="129"></circle><circle r="2" cx="715" cy="269"></circle><circle r="0" cx="117" cy="126"></circle><circle r="1" cx="151" cy="168"></circle><circle r="7" cx="138" cy="143"></circle><circle r="3" cx="105" cy="70"></circle><circle r="6" cx="894" cy="321"></circle><circle r="3" cx="639" cy="392"></circle><circle r="5" cx="143" cy="555"></circle><circle r="0" cx="208" cy="458"></circle><circle r="7" cx="255" cy="151"></circle><circle r="10" cx="589" cy="469"></circle><circle r="8" cx="282" cy="93"></circle><circle r="3" cx="310" cy="453"></circle><circle r="4" cx="535" cy="308"></circle><circle r="3" cx="620" cy="303"></circle><circle r="10" cx="230" cy="56"></circle><circle r="4" cx="536" cy="32"></circle><circle r="8" cx="536" cy="593"></circle><circle r="1" cx="825" cy="521"></circle><circle r="2" cx="516" cy="154"></circle><circle r="9" cx="837" cy="23"></circle><circle r="-2" cx="54" cy="381"></circle><circle r="8" cx="871" cy="493"></circle><circle r="-1" cx="224" cy="27"></circle><circle r="-1" cx="211" cy="407"></circle><circle r="0" cx="424" cy="593"></circle><circle r="2" cx="38" cy="514"></circle><circle r="9" cx="127" cy="224"></circle><circle r="9" cx="655" cy="524"></circle><circle r="7" cx="880" cy="522"></circle><circle r="3" cx="654" cy="429"></circle><circle r="8" cx="113" cy="2"></circle><circle r="9" cx="786" cy="309"></circle><circle r="4" cx="101" cy="481"></circle><circle r="6" cx="369" cy="479"></circle><circle r="4" cx="67" cy="4"></circle><circle r="10" cx="761" cy="212"></circle><circle r="0" cx="564" cy="130"></circle><circle r="2" cx="631" cy="591"></circle><circle r="0" cx="2" cy="98"></circle><circle r="9" cx="51" cy="288"></circle><circle r="4" cx="860" cy="151"></circle><circle r="10" cx="95" cy="521"></circle><circle r="-1" cx="836" cy="106"></circle><circle r="6" cx="181" cy="282"></circle><circle r="4" cx="698" cy="387"></circle><circle r="10" cx="259" cy="199"></circle><circle r="5" cx="503" cy="387"></circle><circle r="5" cx="493" cy="412"></circle><circle r="8" cx="882" cy="465"></circle><circle r="-2" cx="870" cy="243"></circle><circle r="1" cx="261" cy="311"></circle><circle r="1" cx="332" cy="527"></circle><circle r="2" cx="251" cy="484"></circle><circle r="8" cx="217" cy="529"></circle><circle r="6" cx="814" cy="227"></circle><circle r="-1" cx="164" cy="395"></circle><circle r="10" cx="807" cy="24"></circle><circle r="9" cx="741" cy="295"></circle><circle r="3" cx="553" cy="389"></circle><circle r="7" cx="595" cy="40"></circle><circle r="7" cx="160" cy="92"></circle><circle r="1" cx="21" cy="541"></circle><circle r="10" cx="313" cy="196"></circle><circle r="5" cx="453" cy="34"></circle><circle r="8" cx="4" cy="315"></circle><circle r="2" cx="472" cy="599"></circle><circle r="0" cx="40" cy="1"></circle><circle r="-1" cx="538" cy="446"></circle><circle r="2" cx="444" cy="258"></circle><circle r="9" cx="1" cy="369"></circle><circle r="7" cx="418" cy="337"></circle><circle r="6" cx="196" cy="195"></circle><circle r="-1" cx="455" cy="291"></circle><circle r="4" cx="499" cy="64"></circle><circle r="4" cx="796" cy="597"></circle><circle r="2" cx="604" cy="361"></circle><circle r="4" cx="713" cy="139"></circle><circle r="-1" cx="108" cy="456"></circle><circle r="5" cx="139" cy="519"></circle><circle r="8" cx="365" cy="88"></circle><circle r="5" cx="489" cy="335"></circle><circle r="3" cx="688" cy="2"></circle></g></svg>