<svg id="visual" viewBox="0 0 900 600" width="900" height="600" xmlns="http://www.w3.org/2000/svg" xmlns:xlink="http://www.w3.org/1999/xlink" version="1.1"><rect x="0" y="0" width="900" height="600" fill="#00102e"></rect><g fill="#56cdc7"><circle r="14" cx="431" cy="42"></circle><circle r="1" cx="659" cy="274"></circle><circle r="7" cx="501" cy="139"></circle><circle r="2" cx="895" cy="204"></circle><circle r="3" cx="527" cy="403"></circle><circle r="0" cx="281" cy="340"></circle><circle r="3" cx="392" cy="434"></circle><circle r="12" cx="59" cy="23"></circle><circle r="2" cx="349" cy="556"></circle><circle r="8" cx="873" cy="52"></circle><circle r="6" cx="219" cy="427"></circle><circle r="1" cx="150" cy="189"></circle><circle r="5" cx="566" cy="223"></circle><circle r="10" cx="773" cy="381"></circle><circle r="12" cx="880" cy="287"></circle><circle r="5" cx="316" cy="586"></circle><circle r="12" cx="476" cy="480"></circle><circle r="5" cx="725" cy="338"></circle><circle r="0" cx="427" cy="397"></circle><circle r="7" cx="661" cy="438"></circle><circle r="10" cx="726" cy="243"></circle><circle r="7" cx="112" cy="516"></circle><circle r="1" cx="54" cy="191"></circle><circle r="11" cx="641" cy="356"></circle><circle r="6" cx="469" cy="567"></circle><circle r="11" cx="579" cy="455"></circle><circle r="9" cx="59" cy="582"></circle><circle r="5" cx="561" cy="309"></circle><circle r="10" cx="802" cy="15"></circle><circle r="8" cx="682" cy="50"></circle><circle r="10" cx="277" cy="295"></circle><circle r="1" cx="229" cy="15"></circle><circle r="10" cx="796" cy="88"></circle><circle r="2" cx="576" cy="271"></circle><circle r="8" cx="416" cy="329"></circle><circle r="2" cx="494" cy="537"></circle><circle r="11" cx="645" cy="65"></circle><circle r="9" cx="235" cy="82"></circle><circle r="10" cx="14" cy="450"></circle><circle r="5" cx="552" cy="12"></circle><circle r="7" cx="363" cy="276"></circle><circle r="11" cx="725" cy="310"></circle><circle r="3" cx="25" cy="84"></circle><circle r="0" cx="328" cy="275"></circle><circle r="8" cx="23" cy="585"></circle><circle r="5" cx="160" cy="147"></circle><circle r="12" cx="812" cy="422"></circle><circle r="1" cx="116" cy="428"></circle><circle r="6" cx="449" cy="190"></circle><circle r="6" cx="409" cy="101"></circle><circle r="7" cx="631" cy="395"></circle><circle r="10" cx="538" cy="531"></circle><circle r="12" cx="227" cy="598"></circle><circle r="10" cx="739" cy="581"></circle><circle r="1" cx="815" cy="181"></circle><circle r="1" cx="284" cy="432"></circle><circle r="3" cx="810" cy="565"></circle><circle r="4" cx="763" cy="53"></circle><circle r="11" cx="365" cy="48"></circle><circle r="5" cx="623" cy="501"></circle><circle r="12" cx="557" cy="143"></circle><circle r="8" cx="370" cy="308"></circle><circle r="11" cx="123" cy="173"></circle><circle r="8" cx="218" cy="367"></circle><circle r="3" cx="861" cy="430"></circle><circle r="2" cx="67" cy="106"></circle><circle r="7" cx="535" cy="229"></circle><circle r="7" cx="450" cy="528"></circle><circle r="1" cx="633" cy="241"></circle><circle r="9" cx="113" cy="319"></circle><circle r="5" cx="580" cy="168"></circle><circle r="9" cx="756" cy="290"></circle><circle r="8" cx="577" cy="40"></circle><circle r="6" cx="187" cy="6"></circle><circle r="11" cx="544" cy="367"></circle><circle r="9" cx="556" cy="104"></circle><circle r="2" cx="201" cy="396"></circle><circle r="5" cx="89" cy="198"></circle><circle r="10" cx="27" cy="301"></circle><circle r="1" cx="208" cy="175"></circle><circle r="2" cx="730" cy="537"></circle><circle r="10" cx="489" cy="416"></circle><circle r="4" cx="374" cy="99"></circle><circle r="10" cx="50" cy="231"></circle><circle r="2" cx="662" cy="467"></circle><circle r="2" cx="690" cy="489"></circle><circle r="8" cx="426" cy="263"></circle><circle r="12" cx="30" cy="353"></circle><circle r="1" cx="200" cy="235"></circle><circle r="0" cx="851" cy="491"></circle><circle r="2" cx="324" cy="464"></circle><circle r="5" cx="731" cy="417"></circle><circle r="1" cx="835" cy="240"></circle><circle r="8" cx="759" cy="8"></circle><circle r="8" cx="424" cy="462"></circle><circle r="6" cx="881" cy="396"></circle><circle r="11" cx="811" cy="481"></circle><circle r="9" cx="170" cy="232"></circle><circle r="8" cx="474" cy="332"></circle><circle r="9" cx="488" cy="305"></circle><circle r="4" cx="538" cy="68"></circle><circle r="6" cx="39" cy="118"></circle><circle r="2" cx="544" cy="572"></circle><circle r="11" cx="115" cy="3"></circle><circle r="8" cx="840" cy="161"></circle><circle r="1" cx="673" cy="399"></circle><circle r="0" cx="245" cy="282"></circle><circle r="3" cx="688" cy="574"></circle><circle r="0" cx="603" cy="309"></circle><circle r="3" cx="591" cy="516"></circle><circle r="1" cx="596" cy="409"></circle><circle r="6" cx="452" cy="383"></circle><circle r="1" cx="323" cy="10"></circle><circle r="0" cx="17" cy="492"></circle><circle r="8" cx="86" cy="55"></circle><circle r="12" cx="727" cy="98"></circle><circle r="2" cx="282" cy="480"></circle><circle r="3" cx="809" cy="383"></circle><circle r="0" cx="781" cy="349"></circle><circle r="6" cx="461" cy="24"></circle><circle r="8" cx="126" cy="249"></circle><circle r="11" cx="391" cy="24"></circle><circle r="6" cx="403" cy="286"></circle><circle r="5" cx="93" cy="339"></circle><circle r="8" cx="395" cy="394"></circle><circle r="0" cx="117" cy="478"></circle><circle r="7" cx="152" cy="49"></circle><circle r="4" cx="753" cy="448"></circle><circle r="12" cx="416" cy="556"></circle><circle r="10" cx="686" cy="427"></circle><circle r="12" cx="587" cy="72"></circle><circle r="5" cx="464" cy="114"></circle><circle r="10" cx="328" cy="140"></circle><circle r="11" cx="40" cy="474"></circle><circle r="1" cx="754" cy="493"></circle><circle r="7" cx="301" cy="154"></circle><circle r="2" cx="138" cy="73"></circle><circle r="0" cx="836" cy="375"></circle><circle r="7" cx="517" cy="208"></circle><circle r="0" cx="103" cy="372"></circle><circle r="1" cx="295" cy="116"></circle><circle r="8" cx="731" cy="476"></circle><circle r="2" cx="670" cy="146"></circle><circle r="9" cx="563" cy="403"></circle><circle r="7" cx="360" cy="21"></circle><circle r="11" cx="343" cy="522"></circle><circle r="6" cx="401" cy="165"></circle><circle r="5" cx="112" cy="46"></circle><circle r="7" cx="604" cy="139"></circle><circle r="10" cx="674" cy="82"></circle><circle r="1" cx="837" cy="313"></circle><circle r="5" cx="216" cy="516"></circle><circle r="7" cx="546" cy="502"></circle><circle r="8" cx="219" cy="485"></circle><circle r="12" cx="804" cy="139"></circle><circle r="8" cx="414" cy="234"></circle><circle r="8" cx="603" cy="9"></circle><circle r="3" cx="251" cy="487"></circle><circle r="7" cx="805" cy="512"></circle><circle r="5" cx="663" cy="117"></circle><circle r="2" cx="525" cy="256"></circle><circle r="10" cx="44" cy="388"></circle><circle r="2" cx="210" cy="279"></circle><circle r="7" cx="834" cy="91"></circle><circle r="2" cx="142" cy="112"></circle><circle r="12" cx="172" cy="424"></circle><circle r="6" cx="616" cy="50"></circle><circle r="12" cx="310" cy="401"></circle><circle r="4" cx="844" cy="277"></circle><circle r="12" cx="685" cy="369"></circle><circle r="4" cx="897" cy="78"></circle><circle r="9" cx="196" cy="348"></circle><circle r="12" cx="42" cy="551"></circle><circle r="5" cx="260" cy="28"></circle><circle r="10" cx="406" cy="512"></circle><circle r="11" cx="113" cy="115"></circle><circle r="6" cx="275" cy="566"></circle><circle r="11" cx="324" cy="431"></circle><circle r="4" cx="60" cy="301"></circle><circle r="1" cx="894" cy="130"></circle><circle r="8" cx="165" cy="481"></circle><circle r="10" cx="858" cy="557"></circle><circle r="9" cx="520" cy="171"></circle><circle r="0" cx="631" cy="177"></circle><circle r="4" cx="9" cy="119"></circle><circle r="6" cx="589" cy="349"></circle><circle r="7" cx="757" cy="90"></circle><circle r="8" cx="651" cy="504"></circle><circle r="3" cx="514" cy="484"></circle><circle r="4" cx="849" cy="215"></circle><circle r="10" cx="473" cy="143"></circle><circle r="1" cx="449" cy="349"></circle><circle r="3" cx="598" cy="99"></circle><circle r="0" cx="867" cy="1"></circle><circle r="6" cx="740" cy="392"></circle><circle r="9" cx="731" cy="506"></circle><circle r="5" cx="242" cy="381"></circle><circle r="2" cx="446" cy="82"></circle><circle r="7" cx="882" cy="462"></circle><circle r="3" cx="7" cy="156"></circle><circle r="11" cx="269" cy="406"></circle><circle r="7" cx="186" cy="44"></circle><circle r="7" cx="240" cy="557"></circle><circle r="9" cx="66" cy="433"></circle><circle r="10" cx="742" cy="363"></circle><circle r="0" cx="754" cy="324"></circle><circle r="9" cx="301" cy="28"></circle><circle r="4" cx="445" cy="490"></circle><circle r="0" cx="239" cy="236"></circle><circle r="9" cx="265" cy="190"></circle><circle r="3" cx="89" cy="248"></circle><circle r="0" cx="880" cy="497"></circle><circle r="7" cx="20" cy="41"></circle><circle r="10" cx="757" cy="158"></circle><circle r="8" cx="891" cy="13"></circle><circle r="8" cx="215" cy="57"></circle><circle r="0" cx="621" cy="82"></circle><circle r="11" cx="42" cy="63"></circle><circle r="4" cx="777" cy="272"></circle><circle r="9" cx="762" cy="128"></circle><circle r="6" cx="312" cy="322"></circle><circle r="1" cx="648" cy="597"></circle><circle r="4" cx="358" cy="464"></circle><circle r="11" cx="782" cy="562"></circle><circle r="8" cx="42" cy="3"></circle><circle r="7" cx="57" cy="508"></circle><circle r="11" cx="395" cy="77"></circle><circle r="2" cx="858" cy="109"></circle><circle r="6" cx="525" cy="315"></circle><circle r="3" cx="72" cy="394"></circle><circle r="3" cx="189" cy="110"></circle><circle r="11" cx="718" cy="48"></circle><circle r="11" cx="570" cy="559"></circle><circle r="3" cx="224" cy="337"></circle><circle r="5" cx="783" cy="477"></circle><circle r="11" cx="64" cy="258"></circle><circle r="1" cx="432" cy="121"></circle><circle r="1" cx="299" cy="538"></circle><circle r="8" cx="573" cy="372"></circle><circle r="4" cx="731" cy="131"></circle><circle r="12" cx="800" cy="325"></circle><circle r="5" cx="270" cy="456"></circle><circle r="3" cx="570" cy="480"></circle><circle r="9" cx="881" cy="260"></circle><circle r="5" cx="555" cy="430"></circle><circle r="7" cx="512" cy="558"></circle><circle r="9" cx="617" cy="372"></circle><circle r="12" cx="772" cy="223"></circle><circle r="3" cx="143" cy="530"></circle><circle r="8" cx="587" cy="194"></circle><circle r="1" cx="225" cy="207"></circle><circle r="4" cx="668" cy="348"></circle><circle r="9" cx="516" cy="49"></circle><circle r="12" cx="825" cy="62"></circle><circle r="5" cx="493" cy="278"></circle><circle r="2" cx="333" cy="68"></circle><circle r="1" cx="257" cy="132"></circle><circle r="6" cx="672" cy="298"></circle><circle r="4" cx="495" cy="77"></circle><circle r="9" cx="491" cy="248"></circle><circle r="4" cx="140" cy="338"></circle><circle r="0" cx="696" cy="202"></circle><circle r="12" cx="374" cy="372"></circle><circle r="12" cx="136" cy="586"></circle><circle r="5" cx="706" cy="598"></circle><circle r="4" cx="774" cy="194"></circle><circle r="6" cx="134" cy="388"></circle><circle r="8" cx="82" cy="555"></circle><circle r="4" cx="272" cy="90"></circle><circle r="10" cx="433" cy="158"></circle><circle r="0" cx="271" cy="376"></circle><circle r="0" cx="318" cy="246"></circle><circle r="5" cx="600" cy="235"></circle><circle r="5" cx="685" cy="270"></circle><circle r="7" cx="257" cy="327"></circle><circle r="5" cx="171" cy="382"></circle><circle r="7" cx="546" cy="456"></circle><circle r="11" cx="801" cy="46"></circle><circle r="3" cx="139" cy="556"></circle><circle r="7" cx="467" cy="226"></circle><circle r="4" cx="188" cy="572"></circle><circle r="9" cx="555" cy="189"></circle><circle r="1" cx="200" cy="137"></circle><circle r="6" cx="150" cy="9"></circle><circle r="8" cx="772" cy="588"></circle><circle r="11" cx="692" cy="323"></circle><circle r="1" cx="864" cy="143"></circle><circle r="11" cx="894" cy="337"></circle><circle r="5" cx="7" cy="336"></circle><circle r="0" cx="631" cy="573"></circle><circle r="11" cx="362" cy="416"></circle><circle r="8" cx="68" cy="472"></circle><circle r="7" cx="162" cy="299"></circle><circle r="9" cx="12" cy="392"></circle><circle r="1" cx="873" cy="184"></circle><circle r="9" cx="362" cy="202"></circle><circle r="12" cx="341" cy="38"></circle><circle r="7" cx="655" cy="26"></circle><circle r="7" cx="491" cy="374"></circle><circle r="3" cx="396" cy="129"></circle><circle r="7" cx="447" cy="319"></circle><circle r="7" cx="6" cy="234"></circle><circle r="2" cx="172" cy="173"></circle><circle r="11" cx="110" cy="85"></circle><circle r="3" cx="628" cy="322"></circle><circle r="5" cx="451" cy="436"></circle><circle r="10" cx="862" cy="307"></circle><circle r="12" cx="335" cy="355"></circle><circle r="5" cx="617" cy="272"></circle><circle r="4" cx="174" cy="533"></circle><circle r="9" cx="320" cy="198"></circle><circle r="0" cx="728" cy="159"></circle><circle r="1" cx="383" cy="533"></circle><circle r="10" cx="799" cy="206"></circle><circle r="6" cx="625" cy="424"></circle><circle r="7" cx="90" cy="139"></circle><circle r="6" cx="787" cy="411"></circle><circle r="3" cx="697" cy="459"></circle><circle r="0" cx="701" cy="139"></circle><circle r="10" cx="208" cy="88"></circle><circle r="2" cx="386" cy="560"></circle><circle r="0" cx="302" cy="82"></circle><circle r="6" cx="65" cy="333"></circle><circle r="4" cx="697" cy="96"></circle><circle r="12" cx="355" cy="248"></circle><circle r="3" cx="440" cy="589"></circle><circle r="6" cx="25" cy="271"></circle><circle r="6" cx="251" cy="356"></circle><circle r="11" cx="274" cy="224"></circle><circle r="2" cx="752" cy="253"></circle><circle r="7" cx="196" cy="208"></circle><circle r="3" cx="758" cy="528"></circle><circle r="9" cx="5" cy="16"></circle><circle r="1" cx="266" cy="264"></circle><circle r="4" cx="659" cy="544"></circle><circle r="5" cx="12" cy="543"></circle><circle r="11" cx="854" cy="30"></circle><circle r="6" cx="547" cy="41"></circle><circle r="6" cx="837" cy="132"></circle><circle r="8" cx="880" cy="592"></circle><circle r="1" cx="524" cy="593"></circle><circle r="7" cx="275" cy="525"></circle><circle r="11" cx="717" cy="12"></circle><circle r="6" cx="291" cy="202"></circle><circle r="7" cx="608" cy="446"></circle><circle r="12" cx="356" cy="492"></circle><circle r="12" cx="841" cy="455"></circle><circle r="4" cx="697" cy="244"></circle><circle r="12" cx="81" cy="520"></circle><circle r="2" cx="459" cy="410"></circle><circle r="8" cx="508" cy="337"></circle><circle r="1" cx="708" cy="399"></circle><circle r="2" cx="857" cy="72"></circle><circle r="5" cx="170" cy="73"></circle><circle r="5" cx="145" cy="218"></circle><circle r="7" cx="487" cy="10"></circle><circle r="4" cx="338" cy="314"></circle><circle r="5" cx="870" cy="352"></circle><circle r="2" cx="696" cy="516"></circle><circle r="3" cx="28" cy="520"></circle><circle r="9" cx="521" cy="286"></circle><circle r="10" cx="660" cy="172"></circle><circle r="12" cx="488" cy="189"></circle><circle r="7" cx="590" cy="589"></circle><circle r="6" cx="517" cy="18"></circle><circle r="8" cx="150" cy="448"></circle><circle r="5" cx="230" cy="155"></circle><circle r="10" cx="422" cy="195"></circle><circle r="1" cx="197" cy="460"></circle><circle r="6" cx="811" cy="258"></circle><circle r="11" cx="61" cy="140"></circle><circle r="5" cx="30" cy="415"></circle><circle r="2" cx="461" cy="277"></circle><circle r="6" cx="396" cy="592"></circle><circle r="3" cx="170" cy="596"></circle><circle r="2" cx="637" cy="108"></circle><circle r="2" cx="640" cy="139"></circle><circle r="8" cx="257" cy="432"></circle><circle r="8" cx="481" cy="444"></circle><circle r="0" cx="828" cy="341"></circle><circle r="3" cx="782" cy="167"></circle><circle r="1" cx="664" cy="201"></circle><circle r="2" cx="123" cy="288"></circle><circle r="5" cx="836" cy="538"></circle><circle r="1" cx="748" cy="184"></circle><circle r="6" cx="385" cy="477"></circle><circle r="6" cx="683" cy="18"></circle><circle r="4" cx="321" cy="491"></circle><circle r="4" cx="370" cy="150"></circle><circle r="12" cx="714" cy="373"></circle><circle r="0" cx="761" cy="409"></circle><circle r="5" cx="142" cy="421"></circle><circle r="0" cx="853" cy="404"></circle><circle r="4" cx="431" cy="12"></circle><circle r="6" cx="112" cy="560"></circle><circle r="6" cx="513" cy="450"></circle><circle r="2" cx="39" cy="324"></circle><circle r="4" cx="550" cy="279"></circle><circle r="4" cx="799" cy="540"></circle><circle r="8" cx="705" cy="172"></circle><circle r="10" cx="331" cy="103"></circle><circle r="9" cx="168" cy="343"></circle><circle r="6" cx="865" cy="523"></circle><circle r="0" cx="832" cy="6"></circle><circle r="3" cx="94" cy="298"></circle><circle r="2" cx="176" cy="259"></circle><circle r="0" cx="618" cy="204"></circle><circle r="1" cx="817" cy="110"></circle><circle r="4" cx="266" cy="596"></circle><circle r="4" cx="523" cy="91"></circle><circle r="3" cx="297" cy="54"></circle><circle r="10" cx="728" cy="207"></circle><circle r="9" cx="244" cy="519"></circle><circle r="3" cx="20" cy="207"></circle><circle r="6" cx="631" cy="12"></circle><circle r="4" cx="600" cy="551"></circle><circle r="3" cx="627" cy="468"></circle><circle r="6" cx="417" cy="369"></circle><circle r="12" cx="668" cy="236"></circle><circle r="5" cx="116" cy="208"></circle><circle r="1" cx="386" cy="251"></circle><circle r="10" cx="465" cy="597"></circle><circle r="2" cx="96" cy="581"></circle><circle r="7" cx="783" cy="437"></circle><circle r="12" cx="888" cy="426"></circle><circle r="8" cx="343" cy="390"></circle><circle r="2" cx="363" cy="334"></circle><circle r="0" cx="473" cy="48"></circle><circle r="0" cx="845" cy="581"></circle><circle r="5" cx="517" cy="376"></circle><circle r="5" cx="319" cy="560"></circle><circle r="7" cx="351" cy="121"></circle><circle r="5" cx="493" cy="584"></circle><circle r="2" cx="726" cy="447"></circle><circle r="8" cx="713" cy="565"></circle><circle r="11" cx="441" cy="233"></circle><circle r="3" cx="802" cy="291"></circle><circle r="8" cx="867" cy="235"></circle><circle r="6" cx="5" cy="366"></circle><circle r="6" cx="435" cy="291"></circle><circle r="1" cx="3" cy="426"></circle><circle r="2" cx="192" cy="307"></circle><circle r="3" cx="269" cy="164"></circle><circle r="2" cx="233" cy="456"></circle><circle r="11" cx="897" cy="172"></circle><circle r="4" cx="189" cy="502"></circle><circle r="4" cx="3" cy="183"></circle><circle r="7" cx="56" cy="363"></circle><circle r="11" cx="897" cy="309"></circle><circle r="11" cx="324" cy="167"></circle><circle r="8" cx="898" cy="528"></circle><circle r="6" cx="620" cy="532"></circle><circle r="9" cx="417" cy="426"></circle><circle r="3" cx="537" cy="124"></circle><circle r="1" cx="99" cy="401"></circle><circle r="6" cx="335" cy="220"></circle><circle r="2" cx="32" cy="169"></circle><circle r="12" cx="91" cy="493"></circle><circle r="4" cx="377" cy="177"></circle><circle r="0" cx="493" cy="221"></circle><circle r="7" cx="264" cy="59"></circle><circle r="12" cx="516" cy="510"></circle><circle r="7" cx="561" cy="592"></circle><circle r="5" cx="806" cy="454"></circle><circle r="2" cx="754" cy="558"></circle><circle r="9" cx="686" cy="548"></circle><circle r="9" cx="212" cy="561"></circle><circle r="2" cx="149" cy="365"></circle><circle r="3" cx="559" cy="344"></circle><circle r="12" cx="389" cy="223"></circle><circle r="12" cx="390" cy="334"></circle><circle r="2" cx="557" cy="248"></circle><circle r="1" cx="352" cy="597"></circle><circle r="1" cx="303" cy="359"></circle><circle r="6" cx="147" cy="273"></circle><circle r="6" cx="64" cy="79"></circle><circle r="4" cx="77" cy="224"></circle><circle r="0" cx="737" cy="71"></circle><circle r="10" cx="729" cy="279"></circle><circle r="2" cx="889" cy="564"></circle><circle r="12" cx="568" cy="530"></circle><circle r="0" cx="88" cy="169"></circle><circle r="0" cx="128" cy="144"></circle><circle r="10" cx="641" cy="295"></circle><circle r="7" cx="898" cy="232"></circle><circle r="3" cx="81" cy="2"></circle><circle r="6" cx="785" cy="112"></circle><circle r="12" cx="599" cy="489"></circle><circle r="9" cx="896" cy="104"></circle><circle r="2" cx="280" cy="4"></circle><circle r="1" cx="94" cy="460"></circle><circle r="3" cx="231" cy="115"></circle><circle r="11" cx="407" cy="1"></circle><circle r="6" cx="299" cy="511"></circle><circle r="1" cx="1" cy="285"></circle><circle r="2" cx="800" cy="591"></circle><circle r="0" cx="898" cy="368"></circle><circle r="3" cx="493" cy="107"></circle><circle r="1" cx="297" cy="275"></circle><circle r="3" cx="700" cy="297"></circle><circle r="6" cx="578" cy="122"></circle><circle r="3" cx="134" cy="501"></circle><circle r="10" cx="468" cy="506"></circle><circle r="4" cx="578" cy="1"></circle><circle r="3" cx="286" cy="247"></circle><circle r="5" cx="225" cy="309"></circle><circle r="5" cx="743" cy="31"></circle><circle r="3" cx="3" cy="69"></circle><circle r="4" cx="2" cy="515"></circle><circle r="12" cx="656" cy="324"></circle><circle r="11" cx="658" cy="376"></circle><circle r="5" cx="241" cy="411"></circle><circle r="4" cx="809" cy="232"></circle><circle r="0" cx="899" cy="42"></circle><circle r="9" cx="779" cy="306"></circle><circle r="9" cx="349" cy="178"></circle><circle r="6" cx="828" cy="36"></circle><circle r="8" cx="1" cy="570"></circle><circle r="4" cx="238" cy="44"></circle><circle r="8" cx="201" cy="537"></circle><circle r="5" cx="659" cy="570"></circle><circle r="4" cx="404" cy="51"></circle><circle r="11" cx="252" cy="1"></circle><circle r="11" cx="92" cy="27"></circle><circle r="3" cx="198" cy="597"></circle><circle r="8" cx="418" cy="488"></circle><circle r="7" cx="778" cy="507"></circle><circle r="5" cx="677" cy="598"></circle><circle r="7" cx="394" cy="197"></circle><circle r="12" cx="359" cy="77"></circle><circle r="3" cx="451" cy="464"></circle></g></svg>